<?xml version="1.0" standalone="no"?><!DOCTYPE svg PUBLIC "-//W3C//DTD SVG 1.1//EN" "http://www.w3.org/Graphics/SVG/1.1/DTD/svg11.dtd"><svg t="1563968883026" class="icon" viewBox="0 0 1142 1024" version="1.1" xmlns="http://www.w3.org/2000/svg" p-id="1101" xmlns:xlink="http://www.w3.org/1999/xlink" width="223.046875" height="200"><defs><style type="text/css"></style></defs><path d="M518.274514 511.597409m-361.704386 0a361.704386 361.704386 0 1 0 723.408771 0 361.704386 361.704386 0 1 0-723.408771 0Z" fill="#3CE4D6" p-id="1102"></path><path d="M262.508088 767.363834c-141.023465-141.032431-141.023465-370.500419 0-511.523884s370.491453-141.032431 511.523885 0 141.032431 370.491453 0 511.523884-370.491453 141.032431-511.523885 0zM734.651565 295.184492c-119.253057-119.333755-313.456213-119.333755-432.789968 0s-119.333755 313.501045 0 432.825833S615.398507 847.34408 734.651565 728.010325s119.333755-313.492078 0-432.825833z m0 0" fill="#333333" p-id="1103"></path><path d="M626.158182 660.009184L370.140697 403.973766a28.692465 28.692465 0 0 1 40.572939-40.572938l256.035417 256.035417A28.692465 28.692465 0 0 1 626.158182 660.009184z" fill="#333333" p-id="1104"></path><path d="M370.140697 660.009184a28.692465 28.692465 0 0 1 0-40.581905L626.158182 363.400828a28.692465 28.692465 0 0 1 40.572938 40.572938L410.713636 660.009184a28.692465 28.692465 0 0 1-40.572939 0z" fill="#333333" p-id="1105"></path></svg>