<?xml version="1.0" standalone="no"?><!DOCTYPE svg PUBLIC "-//W3C//DTD SVG 1.1//EN" "http://www.w3.org/Graphics/SVG/1.1/DTD/svg11.dtd"><svg t="1563972669436" class="icon" viewBox="0 0 1024 1024" version="1.1" xmlns="http://www.w3.org/2000/svg" p-id="2136" xmlns:xlink="http://www.w3.org/1999/xlink" width="200" height="200"><defs><style type="text/css"></style></defs><path d="M380.586667 344.746667h559.786666v68.266666H380.586667z" fill="#00C97C" p-id="2137"></path><path d="M925.013333 827.733333l-68.266666-8.533333 78.506666-686.08H453.973333l-88.746666 677.546667-68.266667-8.533334 97.28-737.28h616.106667z" fill="#191919" p-id="2138"></path><path d="M191.146667 972.8C95.573333 972.8 17.066667 894.293333 17.066667 798.72s78.506667-174.08 174.08-174.08 174.08 78.506667 174.08 174.08S286.72 972.8 191.146667 972.8z m0-279.893333c-58.026667 0-105.813333 47.786667-105.813334 105.813333S133.12 904.533333 191.146667 904.533333c58.026667 0 105.813333-47.786667 105.813333-105.813333s-47.786667-105.813333-105.813333-105.813333zM750.933333 972.8c-95.573333 0-174.08-78.506667-174.08-174.08S655.36 624.64 750.933333 624.64s174.08 78.506667 174.08 174.08S846.506667 972.8 750.933333 972.8z m0-279.893333c-58.026667 0-105.813333 47.786667-105.813333 105.813333S692.906667 904.533333 750.933333 904.533333s105.813333-47.786667 105.813334-105.813333-47.786667-105.813333-105.813334-105.813333z" fill="#191919" p-id="2139"></path></svg>